<svg width="20" height="21" viewBox="0 0 20 21" fill="none" xmlns="http://www.w3.org/2000/svg">
<g id="Group">
<path id="Vector" d="M17.5 8L16.79 5.395C16.516 4.39 16.379 3.888 16.098 3.509C15.8178 3.13246 15.4373 2.8424 15 2.672C14.56 2.5 14.04 2.5 13 2.5M2.5 8L3.21 5.395C3.484 4.39 3.621 3.888 3.902 3.509C4.18218 3.13246 4.56269 2.8424 5 2.672C5.44 2.5 5.96 2.5 7 2.5" stroke="#424242" stroke-width="1.5"/>
<path id="Vector_2" d="M7 2.5C7 2.23478 7.10536 1.98043 7.29289 1.79289C7.48043 1.60536 7.73478 1.5 8 1.5H12C12.2652 1.5 12.5196 1.60536 12.7071 1.79289C12.8946 1.98043 13 2.23478 13 2.5C13 2.76522 12.8946 3.01957 12.7071 3.20711C12.5196 3.39464 12.2652 3.5 12 3.5H8C7.73478 3.5 7.48043 3.39464 7.29289 3.20711C7.10536 3.01957 7 2.76522 7 2.5Z" stroke="#424242" stroke-width="1.5"/>
<path id="Vector_3" d="M6 11.5V15.5M14 11.5V15.5M10 11.5V15.5" stroke="#424242" stroke-width="1.5" stroke-linecap="round" stroke-linejoin="round"/>
<path id="Vector_4" d="M1.86402 14.955C2.41002 17.138 2.68302 18.229 3.49602 18.865C4.31002 19.5 5.43502 19.5 7.68502 19.5H12.315C14.565 19.5 15.69 19.5 16.505 18.865C17.318 18.229 17.591 17.138 18.136 14.955C18.994 11.523 19.423 9.808 18.523 8.654C17.622 7.5 15.853 7.5 12.316 7.5H7.68502C4.14702 7.5 2.37902 7.5 1.47802 8.654C0.949017 9.331 0.878017 10.202 1.08402 11.5" stroke="#424242" stroke-width="1.5" stroke-linecap="round"/>
</g>
</svg>
