<svg width="18" height="23" viewBox="0 0 18 23" fill="none" xmlns="http://www.w3.org/2000/svg">
<g id="Group">
<path id="Vector" d="M9 9.5C11.2091 9.5 13 7.70914 13 5.5C13 3.29086 11.2091 1.5 9 1.5C6.79086 1.5 5 3.29086 5 5.5C5 7.70914 6.79086 9.5 9 9.5Z" stroke="#424242" stroke-width="1.5"/>
<path id="Vector_2" d="M16.998 17.5C16.9993 17.336 17 17.1693 17 17C17 14.515 13.418 12.5 9 12.5C4.582 12.5 1 14.515 1 17C1 19.485 1 21.5 9 21.5C11.231 21.5 12.84 21.343 14 21.063" stroke="#424242" stroke-width="1.5" stroke-linecap="round"/>
</g>
</svg>
