<svg width="44" height="45" viewBox="0 0 44 45" fill="none" xmlns="http://www.w3.org/2000/svg">
<g id="Logos">
<rect y="0.5" width="44" height="44" rx="22" fill="#F5F5F5"/>
<path id="Vector 2" d="M24.0734 25.9457C24.0734 25.9457 24.4579 22.9527 23.3826 21.6351C22.3205 20.3336 20.6939 21.1436 19.3761 20.1055C18.2545 19.2219 18.5261 17.6102 17.1657 17.1855C16.0641 16.8415 15.4152 17.8203 14.2644 17.7417C13.1843 17.6678 11.7226 16.9032 11.3272 16.6863C11.2584 16.6485 11.188 16.6182 11.112 16.5984C10.6866 16.488 9.16324 16.1436 8.32384 16.6292C6.88289 17.4629 6.8053 19.2227 7.35676 20.8008C7.82528 22.1415 9.10671 22.5157 9.98168 23.3037C10.8567 24.0916 10.3629 26.1553 11.6395 27.1971C12.7275 28.085 13.9604 27.0301 15.0934 28.1705C16.2264 29.3108 16.7512 31.0905 17.9946 31.0905C18.8215 31.0905 19.5466 30.8035 20.1292 30.5158C20.5742 30.296 21.1144 30.416 21.3354 30.8604C22.235 32.6691 22.2774 34.9102 22.2774 36.0964C22.2774 37.6259 24.7641 38.1821 24.7641 36.0964C24.7641 32.4763 23.193 29.3274 21.034 26.7487M23.3826 16.2121C23.3826 16.2121 21.5798 16.0957 21.3103 15.2387C21.0554 14.4284 21.5477 13.7199 22.2774 13.292C23.1281 12.7932 23.8116 13.96 24.7641 13.7092C27.0943 13.0956 21.0588 9.00681 23.1063 7.73C24.1393 7.0858 25.2391 8.1851 26.0834 9.45197C26.6213 10.2591 28.1997 10.1206 28.8951 9.44443C29.1418 9.20462 29.4224 9.03248 29.7377 8.98145C31.4394 8.70596 30.089 12.6173 29.6119 13.8796C29.5419 14.0648 29.679 14.269 29.8706 14.3144C31.1167 14.6097 32.3589 16.209 33.4473 18.2979M11.2251 19.5493C12.5937 20.1256 14.3774 21.0762 16.1986 22.3631M16.1986 22.3631V19.6884M16.1986 22.3631C16.7896 22.7807 17.3845 23.2337 17.9705 23.7208M17.9705 23.7208H13.85M17.9705 23.7208C19.0488 24.6173 20.0968 25.6293 21.034 26.7487M21.034 26.7487V23.3037M21.034 26.7487L17.9946 26.919M33.4473 18.2979C35.8625 22.9329 37.5203 29.9781 36.7835 30.5343C36.2689 30.9227 33.0894 28.4782 30.3118 25.3894M33.4473 18.2979C32.2152 18.4091 31.1976 18.9931 30.8429 19.2712M30.3118 25.3894C27.1232 21.8437 24.4642 17.449 26.9746 15.5168M30.3118 25.3894C30.55 24.6108 31.9625 23.5818 32.6389 23.1646M13.85 11.2063V12.3187M13.85 12.3187V13.5192M13.85 12.3187H12.7043M13.85 12.3187H14.9552M31.2574 30.8124V31.9248M31.2574 31.9248V33.0372M31.2574 31.9248H29.8758M31.2574 31.9248H32.5007M18.6955 8.09624V8.93055M18.6955 8.93055V9.76485M18.6955 8.93055H17.7817M18.6955 8.93055H19.612" stroke="#4E9B51" stroke-linecap="round"/>
</g>
</svg>
